# xmcd CD database file
#
# Track frame offsets:
#	150
#	22045
#	28337
#	49127
#	56797
#	82607
#	97837
#	102230
#	139180
#	144520
#	161120
#	178085
#	199910
#	216355
#
# Disc length: 3750 seconds
#
# Revision: 4
# Processed by: cddbd v1.5.2PL0 Copyright (c) Steve Scherf et al.
# Submitted via: CDex 1.51
#
DISCID=c90ea40e
DTITLE=Ten Years After - Stonedhenge
DYEAR=1969
DGENRE=Rock
TTITLE0=Going To Try
TTITLE1=I Can't Live Without Lydia
TTITLE2=Woman Trouble
TTITLE3=Skoobly-Oobly-Doobob
TTITLE4=Hear Me Calling
TTITLE5=A Sad Song
TTITLE6=Three Blind Mice
TTITLE7=No Title
TTITLE8=Faro
TTITLE9=Speed Kills
TTITLE10=Hear Me Calling (Single Version)
TTITLE11=Women Trouble (US Version)
TTITLE12=I'm Going Home (Single Version)
TTITLE13=Boogie On
EXTD=YEAR: 1969
EXTT0=
EXTT1=
EXTT2=
EXTT3=
EXTT4=
EXTT5=
EXTT6=
EXTT7=
EXTT8=
EXTT9=
EXTT10=
EXTT11=
EXTT12=
EXTT13=
PLAYORDER=
